<?xml version="1.0" encoding="UTF-8" standalone="no"?>
<!DOCTYPE svg PUBLIC "-//W3C//DTD SVG 1.1//EN"
 "http://www.w3.org/Graphics/SVG/1.1/DTD/svg11.dtd">
<!-- Generated by graphviz version 2.44.1 (20200629.0846)
 -->
<!-- Title: dependencies Pages: 1 -->
<svg width="714pt" height="211pt"
 viewBox="0.00 0.00 714.00 211.00" xmlns="http://www.w3.org/2000/svg" xmlns:xlink="http://www.w3.org/1999/xlink">
<g id="graph0" class="graph" transform="scale(1 1) rotate(0) translate(4 207)">
<title>dependencies</title>
<polygon fill="white" stroke="transparent" points="-4,4 -4,-207 710,-207 710,4 -4,4"/>
<text text-anchor="start" x="332.01" y="-42.4" font-family="sans-serif" font-weight="bold" font-size="14.00">Legend</text>
<polygon fill="#ffffb3" stroke="transparent" points="119,-10 119,-30 139,-30 139,-10 119,-10"/>
<text text-anchor="start" x="142.63" y="-15.4" font-family="sans-serif" font-size="14.00"> &#160;Declarations</text>
<polygon fill="#8dd3c7" stroke="transparent" points="232,-10 232,-30 252,-30 252,-10 232,-10"/>
<text text-anchor="start" x="255.73" y="-15.4" font-family="sans-serif" font-size="14.00"> &#160;Module</text>
<polygon fill="#80b1d3" stroke="transparent" points="318,-10 318,-30 338,-30 338,-10 318,-10"/>
<text text-anchor="start" x="341.78" y="-15.4" font-family="sans-serif" font-size="14.00"> &#160;Bootstrap</text>
<polygon fill="#fdb462" stroke="transparent" points="415,-10 415,-30 435,-30 435,-10 415,-10"/>
<text text-anchor="start" x="438.67" y="-15.4" font-family="sans-serif" font-size="14.00"> &#160;Providers</text>
<polygon fill="#fb8072" stroke="transparent" points="511,-10 511,-30 531,-30 531,-10 511,-10"/>
<text text-anchor="start" x="534.73" y="-15.4" font-family="sans-serif" font-size="14.00"> &#160;Exports</text>
<g id="clust1" class="cluster">
<title>cluster_FirebaseDbModule</title>
<polygon fill="none" stroke="black" stroke-dasharray="1,5" points="8,-70 8,-195 698,-195 698,-70 8,-70"/>
</g>
<g id="clust7" class="cluster">
<title>cluster_FirebaseDbModule_providers</title>
<polygon fill="none" stroke="black" points="504,-78 504,-130 690,-130 690,-78 504,-78"/>
</g>
<g id="clust4" class="cluster">
<title>cluster_FirebaseDbModule_imports</title>
<polygon fill="none" stroke="black" points="186,-78 186,-130 496,-130 496,-78 186,-78"/>
</g>
<g id="clust2" class="cluster">
<title>cluster_FirebaseDbModule_declarations</title>
<polygon fill="none" stroke="black" points="16,-78 16,-130 178,-130 178,-78 16,-78"/>
</g>
<!-- FirebaseDbComponent -->
<g id="node1" class="node">
<title>FirebaseDbComponent</title>
<polygon fill="#ffffb3" stroke="black" points="169.86,-122 24.14,-122 24.14,-86 169.86,-86 169.86,-122"/>
<text text-anchor="middle" x="97" y="-99.8" font-family="Times,serif" font-size="14.00">FirebaseDbComponent</text>
</g>
<!-- FirebaseDbModule -->
<g id="node2" class="node">
<title>FirebaseDbModule</title>
<polygon fill="#8dd3c7" stroke="black" points="387.08,-187 384.08,-191 363.08,-191 360.08,-187 262.92,-187 262.92,-151 387.08,-151 387.08,-187"/>
<text text-anchor="middle" x="325" y="-164.8" font-family="Times,serif" font-size="14.00">FirebaseDbModule</text>
</g>
<!-- FirebaseDbComponent&#45;&gt;FirebaseDbModule -->
<g id="edge1" class="edge">
<title>FirebaseDbComponent&#45;&gt;FirebaseDbModule</title>
<path fill="none" stroke="black" d="M97,-122.11C97,-141.34 97,-169 97,-169 97,-169 252.7,-169 252.7,-169"/>
<polygon fill="black" stroke="black" points="252.7,-172.5 262.7,-169 252.7,-165.5 252.7,-172.5"/>
</g>
<!-- FirebaseDbRoutingModule -->
<g id="node3" class="node">
<title>FirebaseDbRoutingModule</title>
<polygon fill="#8dd3c7" stroke="black" points="487.7,-122 484.7,-126 463.7,-126 460.7,-122 318.3,-122 318.3,-86 487.7,-86 487.7,-122"/>
<text text-anchor="middle" x="403" y="-99.8" font-family="Times,serif" font-size="14.00">FirebaseDbRoutingModule</text>
</g>
<!-- FirebaseDbRoutingModule&#45;&gt;FirebaseDbModule -->
<g id="edge2" class="edge">
<title>FirebaseDbRoutingModule&#45;&gt;FirebaseDbModule</title>
<path fill="none" stroke="black" d="M352.72,-122.11C352.72,-122.11 352.72,-140.99 352.72,-140.99"/>
<polygon fill="black" stroke="black" points="349.22,-140.99 352.72,-150.99 356.22,-140.99 349.22,-140.99"/>
</g>
<!-- MaterialModule -->
<g id="node4" class="node">
<title>MaterialModule</title>
<polygon fill="#8dd3c7" stroke="black" points="300.47,-122 297.47,-126 276.47,-126 273.47,-122 193.53,-122 193.53,-86 300.47,-86 300.47,-122"/>
<text text-anchor="middle" x="247" y="-99.8" font-family="Times,serif" font-size="14.00">MaterialModule</text>
</g>
<!-- MaterialModule&#45;&gt;FirebaseDbModule -->
<g id="edge3" class="edge">
<title>MaterialModule&#45;&gt;FirebaseDbModule</title>
<path fill="none" stroke="black" d="M281.72,-122.11C281.72,-122.11 281.72,-140.99 281.72,-140.99"/>
<polygon fill="black" stroke="black" points="278.22,-140.99 281.72,-150.99 285.22,-140.99 278.22,-140.99"/>
</g>
<!-- FirebaseDbService -->
<g id="node5" class="node">
<title>FirebaseDbService</title>
<ellipse fill="#fdb462" stroke="black" cx="597" cy="-104" rx="84.51" ry="18"/>
<text text-anchor="middle" x="597" y="-99.8" font-family="Times,serif" font-size="14.00">FirebaseDbService</text>
</g>
<!-- FirebaseDbService&#45;&gt;FirebaseDbModule -->
<g id="edge4" class="edge">
<title>FirebaseDbService&#45;&gt;FirebaseDbModule</title>
<path fill="none" stroke="black" d="M597,-122.11C597,-141.34 597,-169 597,-169 597,-169 397.06,-169 397.06,-169"/>
<polygon fill="black" stroke="black" points="397.06,-165.5 387.06,-169 397.06,-172.5 397.06,-165.5"/>
</g>
</g>
</svg>
