<?xml version="1.0" encoding="UTF-8" standalone="no"?>
<!DOCTYPE svg PUBLIC "-//W3C//DTD SVG 1.1//EN"
 "http://www.w3.org/Graphics/SVG/1.1/DTD/svg11.dtd">
<!-- Generated by graphviz version 2.44.1 (20200629.0846)
 -->
<!-- Title: dependencies Pages: 1 -->
<svg width="714pt" height="211pt"
 viewBox="0.00 0.00 714.00 211.00" xmlns="http://www.w3.org/2000/svg" xmlns:xlink="http://www.w3.org/1999/xlink">
<g id="graph0" class="graph" transform="scale(1 1) rotate(0) translate(4 207)">
<title>dependencies</title>
<polygon fill="white" stroke="transparent" points="-4,4 -4,-207 710,-207 710,4 -4,4"/>
<text text-anchor="start" x="332.01" y="-42.4" font-family="sans-serif" font-weight="bold" font-size="14.00">Legend</text>
<polygon fill="#ffffb3" stroke="transparent" points="119,-10 119,-30 139,-30 139,-10 119,-10"/>
<text text-anchor="start" x="142.63" y="-15.4" font-family="sans-serif" font-size="14.00"> &#160;Declarations</text>
<polygon fill="#8dd3c7" stroke="transparent" points="232,-10 232,-30 252,-30 252,-10 232,-10"/>
<text text-anchor="start" x="255.73" y="-15.4" font-family="sans-serif" font-size="14.00"> &#160;Module</text>
<polygon fill="#80b1d3" stroke="transparent" points="318,-10 318,-30 338,-30 338,-10 318,-10"/>
<text text-anchor="start" x="341.78" y="-15.4" font-family="sans-serif" font-size="14.00"> &#160;Bootstrap</text>
<polygon fill="#fdb462" stroke="transparent" points="415,-10 415,-30 435,-30 435,-10 415,-10"/>
<text text-anchor="start" x="438.67" y="-15.4" font-family="sans-serif" font-size="14.00"> &#160;Providers</text>
<polygon fill="#fb8072" stroke="transparent" points="511,-10 511,-30 531,-30 531,-10 511,-10"/>
<text text-anchor="start" x="534.73" y="-15.4" font-family="sans-serif" font-size="14.00"> &#160;Exports</text>
<g id="clust1" class="cluster">
<title>cluster_FirebaseDbModule</title>
<polygon fill="none" stroke="black" stroke-dasharray="1,5" points="8,-70 8,-195 698,-195 698,-70 8,-70"/>
</g>
<g id="clust4" class="cluster">
<title>cluster_FirebaseDbModule_imports</title>
<polygon fill="none" stroke="black" points="380,-78 380,-130 690,-130 690,-78 380,-78"/>
</g>
<g id="clust2" class="cluster">
<title>cluster_FirebaseDbModule_declarations</title>
<polygon fill="none" stroke="black" points="210,-78 210,-130 372,-130 372,-78 210,-78"/>
</g>
<g id="clust7" class="cluster">
<title>cluster_FirebaseDbModule_providers</title>
<polygon fill="none" stroke="black" points="16,-78 16,-130 202,-130 202,-78 16,-78"/>
</g>
<!-- FirebaseDbComponent -->
<g id="node1" class="node">
<title>FirebaseDbComponent</title>
<polygon fill="#ffffb3" stroke="black" points="363.86,-122 218.14,-122 218.14,-86 363.86,-86 363.86,-122"/>
<text text-anchor="middle" x="291" y="-99.8" font-family="Times,serif" font-size="14.00">FirebaseDbComponent</text>
</g>
<!-- FirebaseDbModule -->
<g id="node2" class="node">
<title>FirebaseDbModule</title>
<polygon fill="#8dd3c7" stroke="black" points="428.08,-187 425.08,-191 404.08,-191 401.08,-187 303.92,-187 303.92,-151 428.08,-151 428.08,-187"/>
<text text-anchor="middle" x="366" y="-164.8" font-family="Times,serif" font-size="14.00">FirebaseDbModule</text>
</g>
<!-- FirebaseDbComponent&#45;&gt;FirebaseDbModule -->
<g id="edge1" class="edge">
<title>FirebaseDbComponent&#45;&gt;FirebaseDbModule</title>
<path fill="none" stroke="black" d="M333.95,-122.11C333.95,-122.11 333.95,-140.99 333.95,-140.99"/>
<polygon fill="black" stroke="black" points="330.45,-140.99 333.95,-150.99 337.45,-140.99 330.45,-140.99"/>
</g>
<!-- FirebaseDbRoutingModule -->
<g id="node3" class="node">
<title>FirebaseDbRoutingModule</title>
<polygon fill="#8dd3c7" stroke="black" points="681.7,-122 678.7,-126 657.7,-126 654.7,-122 512.3,-122 512.3,-86 681.7,-86 681.7,-122"/>
<text text-anchor="middle" x="597" y="-99.8" font-family="Times,serif" font-size="14.00">FirebaseDbRoutingModule</text>
</g>
<!-- FirebaseDbRoutingModule&#45;&gt;FirebaseDbModule -->
<g id="edge2" class="edge">
<title>FirebaseDbRoutingModule&#45;&gt;FirebaseDbModule</title>
<path fill="none" stroke="black" d="M597,-122.11C597,-141.34 597,-169 597,-169 597,-169 438.21,-169 438.21,-169"/>
<polygon fill="black" stroke="black" points="438.21,-165.5 428.21,-169 438.21,-172.5 438.21,-165.5"/>
</g>
<!-- MaterialModule -->
<g id="node4" class="node">
<title>MaterialModule</title>
<polygon fill="#8dd3c7" stroke="black" points="494.47,-122 491.47,-126 470.47,-126 467.47,-122 387.53,-122 387.53,-86 494.47,-86 494.47,-122"/>
<text text-anchor="middle" x="441" y="-99.8" font-family="Times,serif" font-size="14.00">MaterialModule</text>
</g>
<!-- MaterialModule&#45;&gt;FirebaseDbModule -->
<g id="edge3" class="edge">
<title>MaterialModule&#45;&gt;FirebaseDbModule</title>
<path fill="none" stroke="black" d="M407.78,-122.11C407.78,-122.11 407.78,-140.99 407.78,-140.99"/>
<polygon fill="black" stroke="black" points="404.28,-140.99 407.78,-150.99 411.28,-140.99 404.28,-140.99"/>
</g>
<!-- FirebaseDbService -->
<g id="node5" class="node">
<title>FirebaseDbService</title>
<ellipse fill="#fdb462" stroke="black" cx="109" cy="-104" rx="84.51" ry="18"/>
<text text-anchor="middle" x="109" y="-99.8" font-family="Times,serif" font-size="14.00">FirebaseDbService</text>
</g>
<!-- FirebaseDbService&#45;&gt;FirebaseDbModule -->
<g id="edge4" class="edge">
<title>FirebaseDbService&#45;&gt;FirebaseDbModule</title>
<path fill="none" stroke="black" d="M109,-122.11C109,-141.34 109,-169 109,-169 109,-169 293.79,-169 293.79,-169"/>
<polygon fill="black" stroke="black" points="293.79,-172.5 303.79,-169 293.79,-165.5 293.79,-172.5"/>
</g>
</g>
</svg>
